<svg data-v-ca38fe3a="" width="36" height="34" viewBox="0 0 36 34" fill="currentColor" xmlns="http://www.w3.org/2000/svg" class="social-media__icon social-media__icon--instagram"><path fill-rule="evenodd" clip-rule="evenodd" d="M10.97 0.699997H25.2223C27.1086 0.898792 28.3662 1.09759 29.4142 1.49518C30.6717 2.09156 31.5101 2.48915 32.5581 3.48313C33.606 4.47711 34.2348 5.47108 34.654 6.46506C35.0732 7.45903 35.4923 8.65181 35.4923 10.441V23.959C35.2827 25.7482 35.0732 26.941 34.654 27.9349L34.654 27.935L34.6539 27.935L34.6539 27.9351L34.6539 27.9351C34.0251 29.1278 33.606 29.9229 32.5581 30.9169C31.5101 31.9108 30.4621 32.5072 29.4142 32.9048C28.3662 33.3024 27.1086 33.7 25.2223 33.7H10.97C9.08371 33.5012 7.82615 33.3024 6.77819 32.9048C5.52064 32.3084 4.68227 31.9108 3.63431 30.9169C2.58634 29.9229 1.95757 28.9289 1.53838 27.9349C1.1192 26.941 0.700012 25.7482 0.700012 23.959V10.441C0.909604 8.65181 1.1192 7.45903 1.53838 6.46506C2.16716 5.27229 2.58634 4.47711 3.63431 3.48313C4.68227 2.48915 5.73023 1.89277 6.77819 1.49518C7.82615 1.09759 9.08371 0.699997 10.97 0.699997ZM25.2223 3.68193H10.97C9.29331 3.88072 8.45494 4.07952 7.82616 4.27831C6.98779 4.47711 6.35901 4.8747 5.73024 5.47109C5.23269 5.943 4.99761 6.41491 4.71347 6.98532L4.71347 6.98533C4.63863 7.13556 4.56002 7.29335 4.47268 7.45904C4.44026 7.5513 4.40282 7.64832 4.36269 7.7523C4.14342 8.32048 3.8439 9.09663 3.8439 10.441V23.959C4.0535 25.5494 4.26309 26.3446 4.47268 26.941C4.68227 27.7361 5.10146 28.3325 5.73024 28.9289C6.22778 29.4008 6.72533 29.6238 7.32672 29.8933C7.48534 29.9644 7.65118 30.0387 7.82616 30.1217C7.92343 30.1524 8.02572 30.188 8.13535 30.226C8.73439 30.434 9.55269 30.7181 10.97 30.7181H25.2223C26.8991 30.5193 27.7374 30.3205 28.3662 30.1217C29.2046 29.9229 29.8334 29.5253 30.4621 28.9289C30.9597 28.457 31.1948 27.9851 31.4789 27.4147C31.5538 27.2643 31.6323 27.1068 31.7197 26.941C31.7521 26.8487 31.7896 26.7517 31.8297 26.6477C32.0489 26.0795 32.3485 25.3034 32.3485 23.959V10.441C32.1389 8.8506 31.9293 8.05542 31.7197 7.45904C31.5101 6.66386 31.0909 6.06747 30.4621 5.47109C29.9646 4.99917 29.467 4.7762 28.8657 4.5067C28.7073 4.43573 28.5409 4.36115 28.3662 4.27831C28.269 4.24759 28.1668 4.21211 28.0573 4.17409L28.0573 4.17407L28.0571 4.174L28.057 4.17399C27.458 3.96602 26.6397 3.68193 25.2223 3.68193ZM18.0962 8.6518C13.066 8.6518 9.08371 12.4289 9.08371 17.2C9.08371 21.9711 13.066 25.7482 18.0962 25.7482C23.1264 25.7482 27.1087 21.9711 27.1087 17.2C27.1087 12.4289 23.1264 8.6518 18.0962 8.6518ZM18.0962 22.7663C14.9523 22.7663 12.2276 20.3807 12.2276 17.2C12.2276 14.2181 14.7427 11.6337 18.0962 11.6337C21.2401 11.6337 23.9648 14.0193 23.9648 17.2C23.9648 20.1819 21.2401 22.7663 18.0962 22.7663ZM29.4142 8.45302C29.4142 9.55093 28.4758 10.441 27.3183 10.441C26.1607 10.441 25.2223 9.55093 25.2223 8.45302C25.2223 7.3551 26.1607 6.46506 27.3183 6.46506C28.4758 6.46506 29.4142 7.3551 29.4142 8.45302Z"></path></svg>